<svg width="32" height="32" viewBox="0 0 32 32" fill="none" xmlns="http://www.w3.org/2000/svg">
<path d="M0 16C0 7.16344 7.16344 0 16 0V0C24.8366 0 32 7.16344 32 16V16C32 24.8366 24.8366 32 16 32V32C7.16344 32 0 24.8366 0 16V16Z" fill="url(#paint0_linear_7101_2892)"/>
<g clip-path="url(#clip0_7101_2892)">
<path fill-rule="evenodd" clip-rule="evenodd" d="M19.9341 7.20227C19.8203 7.00886 19.5682 6.94255 19.3711 7.05427L12.6241 10.8773C12.4706 10.9644 12.3908 11.1382 12.4265 11.3088L14.6971 22.1994C14.7081 22.2519 14.6854 22.3293 14.651 22.3673L14.3752 22.6727C13.8016 23.3076 13.3157 23.6515 12.3922 23.6515C11.3567 23.6515 10.8705 23.1158 10.1007 22.1689C9.18125 21.0382 8.03722 19.631 5.25568 19.631H5.1869C4.80754 19.631 4.5 19.9329 4.5 20.3052C4.5 20.6775 4.80754 20.9794 5.1869 20.9794H5.25568C7.37573 20.9794 8.17768 21.9657 9.02679 23.0099C9.78521 23.9428 10.6448 25 12.3922 25C13.9007 25 14.7308 24.3113 15.4031 23.5673L17.8829 20.8228C17.8829 20.8227 23.7809 14.2947 23.7809 14.2947C23.8985 14.1645 23.9181 13.975 23.8294 13.8241L19.9341 7.20227Z" fill="white"/>
</g>
<defs>
<linearGradient id="paint0_linear_7101_2892" x1="-1.7875" y1="-1.36" x2="39.9089" y2="7.85943" gradientUnits="userSpaceOnUse">
<stop stop-color="#176FEB"/>
<stop offset="1" stop-color="#FF80FF"/>
</linearGradient>
<clipPath id="clip0_7101_2892">
<rect width="19.5" height="18" fill="white" transform="translate(4.5 7)"/>
</clipPath>
</defs>
</svg>
