<svg width="25" height="25" viewBox="0 0 25 25" fill="none" xmlns="http://www.w3.org/2000/svg">
<path d="M0.833496 12.5C0.833496 5.87258 6.20608 0.5 12.8335 0.5C19.4609 0.5 24.8335 5.87258 24.8335 12.5C24.8335 19.1274 19.4609 24.5 12.8335 24.5C6.20608 24.5 0.833496 19.1274 0.833496 12.5Z" fill="#8FA3BF"/>
<g clip-path="url(#clip0_7136_798)">
<path fill-rule="evenodd" clip-rule="evenodd" d="M15.7841 5.9017C15.6987 5.75665 15.5096 5.70691 15.3618 5.7907L10.3016 8.65799C10.1864 8.7233 10.1266 8.85368 10.1533 8.9816L11.8563 17.1496C11.8645 17.1889 11.8475 17.247 11.8218 17.2755L11.6149 17.5045C11.1847 17.9807 10.8203 18.2386 10.1277 18.2386C9.35101 18.2386 8.98637 17.8369 8.40899 17.1267C7.71943 16.2786 6.86141 15.2233 4.77526 15.2233H4.72367C4.43915 15.2233 4.2085 15.4496 4.2085 15.7289C4.2085 16.0081 4.43915 16.2345 4.72367 16.2345H4.77526C6.3653 16.2345 6.96675 16.9742 7.60359 17.7574C8.17241 18.4571 8.81712 19.25 10.1277 19.25C11.259 19.25 11.8816 18.7335 12.3858 18.1755L14.2456 16.1171C14.2456 16.117 18.6691 11.2211 18.6691 11.2211C18.7574 11.1234 18.7721 10.9812 18.7056 10.8681L15.7841 5.9017Z" fill="white"/>
</g>
<defs>
<clipPath id="clip0_7136_798">
<rect width="14.625" height="13.5" fill="white" transform="translate(4.2085 5.75)"/>
</clipPath>
</defs>
</svg>
